# xmcd
#
# Track frame offsets:
#	151
#	16367
#	28506
#	39929
#	52348
#	63817
#	76353
#	87823
#	102484
#	114001
#
# Disc length: 1669
#
# Revision: 2
# Processed by: cddbd v1.5.1PL0 Copyright (c) Steve Scherf et al.
# Submitted via: EasyCDDAExtractor 7.0.6.1
# Normalized: r1:DSETVAR1
#
DISCID=7006830a
DTITLE=Various Artist - Cuba Social Club - Trio Matamoros
DYEAR=1900
DGENRE=Blues
TTITLE0=Trío Matamoros - Mamá son de la loma
TTITLE1=Celia Cruz - La jaibera
TTITLE2=Celio González - Por una cara bonita
TTITLE3=Trío Matamoros - Sueño infeliz
TTITLE4=Nico Saquito - Amarao con P.
TTITLE5=Chappotin y su Conjunto - Me voy contigo
TTITLE6=Israel Kantor - El reloj de la pastora
TTITLE7=Trío Matamoros - El que siembra su maiz
TTITLE8=Omara Portuondo - Siboney
TTITLE9=Bola de Nieve - Belen (Nana)
EXTD=
EXTT0=
EXTT1=
EXTT2=
EXTT3=
EXTT4=
EXTT5=
EXTT6=
EXTT7=
EXTT8=
EXTT9=
PLAYORDER=
